HIERARCHY
ROOT Hips
{
  OFFSET 1.44925e-005 102.336 -0.101585
  CHANNELS 6 Xposition Yposition Zposition Zrotation Xrotation Yrotation
  JOINT RightUpLeg
  {
    OFFSET -8.9458 -8.66707 0.101652
    CHANNELS 3 Zrotation Xrotation Yrotation
    JOINT RightLeg
    {
      OFFSET 0 -44.4227 1.3727
      CHANNELS 3 Zrotation Xrotation Yrotation
      JOINT RightFoot
      {
        OFFSET 0.253549 -42.0924 -1.46059
        CHANNELS 3 Zrotation Xrotation Yrotation
        JOINT RightToes
        {
          OFFSET 0.04 -4.41509 8.4991
          CHANNELS 3 Zrotation Xrotation Yrotation
          End Site
          {
            OFFSET -0.08 -0.137448 9.77979
          }
        }
      }
    }
  }
  JOINT Spine
  {
    OFFSET 0 11.8905 0
    CHANNELS 3 Zrotation Xrotation Yrotation
    JOINT Spine1
    {
      OFFSET 0 25.6574 0.127663
      CHANNELS 3 Zrotation Xrotation Yrotation
      JOINT HEad
      {
        OFFSET 0 8.73416 0.011341
        CHANNELS 3 Zrotation Xrotation Yrotation
        End Site
        {
          OFFSET -0.29 12.7742 2.51395
        }
      }
      JOINT LeftShoulder1
      {
        OFFSET 8.99 -0.362252 -0.22
        CHANNELS 3 Zrotation Xrotation Yrotation
        JOINT LeftArm
        {
          OFFSET 10.2827 -0.00337999 0.322123
          CHANNELS 3 Zrotation Xrotation Yrotation
          JOINT LeftForeArm
          {
            OFFSET 26.2597 0.099144 -1.42434
            CHANNELS 3 Zrotation Xrotation Yrotation
            JOINT LeftHand
            {
              OFFSET 22.0902 0.085362 1.02216
              CHANNELS 3 Zrotation Xrotation Yrotation
              End Site
              {
                OFFSET 13.419 -0.6 1.50291
              }
            }
          }
        }
      }
      JOINT RightShoulder
      {
        OFFSET -8.99 -0.362252 -0.22
        CHANNELS 3 Zrotation Xrotation Yrotation
        JOINT RightArm
        {
          OFFSET -10.2827 -0.00338 0.322123
          CHANNELS 3 Zrotation Xrotation Yrotation
          JOINT RightForeArm
          {
            OFFSET -26.364 0.099144 -1.42434
            CHANNELS 3 Zrotation Xrotation Yrotation
            JOINT RightHand
            {
              OFFSET -22.0324 0.085362 1.02216
              CHANNELS 3 Zrotation Xrotation Yrotation
              End Site
              {
                OFFSET -13.3284 -0.6 1.50291
              }
            }
          }
        }
      }
    }
  }
  JOINT LeftUpLeg
  {
    OFFSET 8.9458 -8.66707 0.101652
    CHANNELS 3 Zrotation Xrotation Yrotation
    JOINT LeftLeg
    {
      OFFSET 0 -44.4227 1.3727
      CHANNELS 3 Zrotation Xrotation Yrotation
      JOINT LeftFoot
      {
        OFFSET -0.253549 -42.0924 -1.46059
        CHANNELS 3 Zrotation Xrotation Yrotation
        JOINT LeftToes
        {
          OFFSET -0.04 -4.41509 8.4991
          CHANNELS 3 Zrotation Xrotation Yrotation
          End Site
          {
            OFFSET 0.08 -0.047448 9.77979
          }
        }
      }
    }
  }
}
MOTION
Frames:	8
Frame Time:	0.0333333
-1.90161 106.344 27.4639 2.16154 6.41809 177.976 -5.5398 9.0704 -7.14713 2.0657 10.0726 -17.1493 9.03128 -9.25225 -0.0691655 0.0462048 0.000530889 0.662642 0.098852 -4.69702 -0.185237 2.18678 12.2903 -0.890469 -3.60969 -5.91711 1.92749 -28.4128 1.48726 -0.805025 -49.8468 -20.7779 -21.4872 -10.1776 34.6315 -0.0328613 2.88445 9.79162 -0.0414787 37.0827 5.49806 8.67998 31.9385 -34.4993 3.2006 5.31981 33.7983 5.04426 -26.0747 8.78944 -0.403984 12.4815 5.24959 8.66761 -2.59987 12.8498 4.99169 -9.38762 -7.58352 0.0372149 -1.30555e-009 8.75239e-006 -1.46341e-008 
-1.90161 106.345 27.4835 2.16065 6.38658 177.974 -5.51641 9.0354 -7.10868 2.03615 10.0312 -17.1315 9.09296 -9.23323 -0.0691618 0.0462048 0.000530889 0.662642 0.0987321 -4.73398 -0.185247 2.14894 12.3177 -0.887675 -3.5804 -5.91651 1.81819 -28.3302 1.50117 -0.855497 -49.9323 -20.8108 -21.4537 -10.1211 34.7867 -0.0610344 3.50549 9.74191 -0.982458 37.132 5.50531 8.6823 31.8911 -34.5009 3.1509 5.32924 33.6481 5.08879 -25.6476 8.8358 -0.530025 12.4794 5.21109 8.66043 -2.60307 12.8332 5.01232 -9.3875 -7.5623 0.038197 -1.30555e-009 8.75239e-006 -1.46341e-008 
-1.9015 106.353 27.51 2.16144 6.34254 177.95 -5.4978 8.98785 -7.08092 2.00841 9.97516 -17.1308 9.07756 -9.18744 -0.0691528 0.0462048 0.000530889 0.662642 0.100519 -4.75846 -0.184391 2.08943 12.3063 -0.870018 -3.48109 -5.90727 1.66221 -28.1949 1.52358 -0.937498 -50.0477 -20.8426 -21.3729 -10.0604 34.9884 -0.0828559 4.35025 9.66341 -2.12886 37.2249 5.52091 8.69143 31.7929 -34.479 3.07201 5.39269 33.3932 5.04327 -24.9853 8.92188 -0.800134 12.4709 5.18507 8.64337 -2.61227 12.7633 5.08175 -9.38578 -7.50704 0.0419753 -1.30555e-009 8.75239e-006 -1.46341e-008 
-1.90069 106.364 27.5322 2.17008 6.30019 177.895 -5.49531 8.9589 -7.0899 2.0186 9.89417 -17.116 8.98513 -9.12291 -0.0691402 0.0462048 0.000530889 0.662642 0.108962 -4.73757 -0.180831 2.05034 12.2331 -0.848327 -3.34561 -5.86974 1.59329 -28.1084 1.53494 -0.981618 -50.0943 -20.8407 -21.2933 -10.0555 35.06 -0.0692452 4.73731 9.62744 -2.46149 37.2777 5.52862 8.69013 31.7179 -34.4377 3.01079 5.46637 33.3037 4.91255 -24.6007 8.94643 -0.841925 12.4695 5.1773 8.63071 -2.6226 12.6838 5.16912 -9.3854 -7.45455 0.0454125 -1.30555e-009 8.75239e-006 -1.46341e-008 
-1.89896 106.372 27.5586 2.20012 6.26099 177.829 -5.47857 8.93123 -7.09306 2.04023 9.80923 -17.0671 8.95364 -9.06467 -0.0697101 0.0462048 0.000530889 0.662642 0.116245 -4.69644 -0.181558 2.05625 12.1627 -0.849184 -3.2594 -5.795 1.62319 -28.1088 1.53003 -0.967246 -50.0634 -20.8265 -21.2662 -10.0837 35.0294 -0.0420713 4.69796 9.63897 -2.17876 37.2513 5.53036 8.67981 31.7231 -34.4215 3.01938 5.49473 33.4205 4.79198 -24.5857 8.90011 -0.615127 12.4931 5.14697 8.64082 -2.62547 12.6631 5.22034 -9.40302 -7.43564 0.0481111 -1.30555e-009 8.75239e-006 -1.46341e-008 
-1.89685 106.374 27.5985 2.2372 6.23809 177.78 -5.43392 8.87838 -7.0601 2.02577 9.79109 -17.0332 9.00169 -9.03563 -0.0714202 0.0462048 0.000530889 0.662642 0.103965 -4.64157 -0.200168 2.10045 12.1232 -0.881206 -3.23793 -5.70986 1.67216 -28.1308 1.52308 -0.944151 -50.0315 -20.8403 -21.268 -10.0846 35.012 -0.0378932 4.66981 9.64499 -2.04698 37.2059 5.52915 8.68232 31.7656 -34.4443 3.09476 5.49366 33.5329 4.71027 -24.5848 8.87641 -0.500196 12.5307 5.09501 8.66905 -2.62062 12.6977 5.23266 -9.41969 -7.43442 0.0496924 -1.30555e-009 8.75239e-006 -1.46341e-008 
-1.89453 106.375 27.6446 2.25426 6.24542 177.753 -5.39527 8.82252 -7.02228 1.98128 9.8441 -17.0438 9.01543 -9.03022 -0.0718267 0.0462048 0.000530889 0.662642 0.0601958 -4.5536 -0.229399 2.16444 12.0658 -0.924441 -3.212 -5.64863 1.70909 -28.0976 1.52989 -0.968272 -50.0665 -20.8896 -21.2342 -10.0407 35.0083 -0.0509688 4.76152 9.63366 -2.21521 37.1974 5.52647 8.69823 31.7642 -34.4701 3.16069 5.50663 33.5069 4.64412 -24.3803 8.90104 -0.576381 12.5481 5.06839 8.68736 -2.61698 12.7245 5.24438 -9.40418 -7.42188 0.0508046 -1.30555e-009 8.75239e-006 -1.46341e-008 
-1.89216 106.381 27.683 2.24621 6.27155 177.734 -5.39276 8.80136 -7.01668 1.95192 9.88826 -17.0614 8.95337 -9.02412 -0.0733604 0.0462048 0.000530889 0.662642 -0.015349 -4.45766 -0.249401 2.25038 11.9711 -0.959033 -3.14876 -5.59258 1.77092 -28.0215 1.55157 -1.04143 -50.1573 -20.949 -21.1629 -9.99132 34.9651 -0.034374 4.75492 9.63246 -2.26487 37.1988 5.52398 8.70672 31.7064 -34.4726 3.15579 5.53359 33.398 4.59878 -24.2144 8.89051 -0.48925 12.5345 5.0878 8.67619 -2.61837 12.7005 5.27306 -9.38227 -7.38903 0.0522671 -1.30555e-009 8.75239e-006 -1.46341e-008 
